<?xml version="1.0" encoding="UTF-8" standalone="no"?><!DOCTYPE svg PUBLIC "-//W3C//DTD SVG 1.1//EN" "http://www.w3.org/Graphics/SVG/1.1/DTD/svg11.dtd"><svg width="100%" height="100%" viewBox="0 0 417 250" version="1.1" xmlns="http://www.w3.org/2000/svg" xmlns:xlink="http://www.w3.org/1999/xlink" xml:space="preserve" xmlns:serif="http://www.serif.com/" style="fill-rule:evenodd;clip-rule:evenodd;stroke-linejoin:round;stroke-miterlimit:1.41421;"><g><rect x="216.708" y="100.022" width="50" height="50" style="fill:#202a33;"/><path d="M35.535,217.916c2.017,0 3.908,0.401 5.672,1.203c1.765,0.802 3.3,1.959 4.607,3.472c1.306,1.512 2.337,3.345 3.093,5.5c0.757,2.154 1.135,4.606 1.135,7.356c0,2.521 -0.275,5.042 -0.825,7.562c-0.55,2.521 -1.352,4.859 -2.407,7.013l-8.593,-2.269c0.779,-1.604 1.455,-3.414 2.028,-5.431c0.573,-2.017 0.859,-4.194 0.859,-6.531c0,-1.925 -0.355,-3.507 -1.065,-4.744c-0.711,-1.238 -1.868,-1.856 -3.472,-1.856c-1.146,0 -2.189,0.538 -3.128,1.615c-0.94,1.077 -1.937,3.037 -2.991,5.878c-1.696,4.492 -3.632,7.769 -5.809,9.832c-2.178,2.062 -4.962,3.093 -8.354,3.093c-4.445,0 -7.837,-1.455 -10.175,-4.365c-2.337,-2.911 -3.506,-6.933 -3.506,-12.066c0,-2.612 0.287,-5.11 0.86,-7.494c0.572,-2.383 1.317,-4.4 2.234,-6.05l8.456,1.925c-0.779,1.605 -1.409,3.358 -1.89,5.26c-0.482,1.902 -0.722,3.861 -0.722,5.878c0,1.696 0.286,3.059 0.859,4.09c0.573,1.032 1.547,1.547 2.922,1.547c0.642,0 1.192,-0.091 1.65,-0.275c0.458,-0.183 0.894,-0.515 1.306,-0.996c0.413,-0.482 0.825,-1.158 1.238,-2.029c0.412,-0.87 0.893,-1.97 1.443,-3.3c0.78,-1.925 1.605,-3.735 2.475,-5.431c0.871,-1.696 1.88,-3.162 3.025,-4.4c1.146,-1.237 2.452,-2.211 3.919,-2.922c1.467,-0.71 3.186,-1.065 5.156,-1.065Z" style="fill:#202a33;fill-rule:nonzero;"/><path d="M45.917,193.441c1.054,1.054 1.982,2.486 2.784,4.296c0.802,1.811 1.203,3.793 1.203,5.947c0,1.513 -0.252,2.865 -0.756,4.057c-0.504,1.191 -1.192,2.188 -2.063,2.99c-0.87,0.802 -1.89,1.421 -3.059,1.856c-1.169,0.436 -2.418,0.654 -3.747,0.654c-3.117,0 -5.465,-0.974 -7.047,-2.922c-1.581,-1.948 -2.509,-4.71 -2.784,-8.285c-0.092,-1.329 -0.161,-2.738 -0.206,-4.228c-0.046,-1.489 -0.092,-2.807 -0.138,-3.953l-1.1,0c-3.667,0 -5.5,2.04 -5.5,6.119c0,1.604 0.183,3.151 0.55,4.64c0.367,1.49 0.871,2.854 1.513,4.091l-7.632,1.994c-0.916,-1.604 -1.661,-3.495 -2.234,-5.672c-0.573,-2.177 -0.859,-4.549 -0.859,-7.116c0,-4.72 1.226,-8.41 3.678,-11.068c2.452,-2.659 6.13,-3.988 11.034,-3.988l19.663,0l0,10.588l-3.3,0Zm-3.232,5.981c0,-1.054 -0.137,-2.051 -0.412,-2.991c-0.275,-0.939 -0.642,-1.799 -1.1,-2.578l-5.019,0c0.092,1.1 0.195,2.086 0.31,2.956c0.114,0.871 0.217,1.719 0.309,2.544c0.275,2.246 1.329,3.369 3.162,3.369c0.825,0 1.49,-0.287 1.994,-0.859c0.504,-0.573 0.756,-1.387 0.756,-2.441Z" style="fill:#202a33;fill-rule:nonzero;"/><path d="M49.217,172.953l-25.3,0l0,5.225l-8.388,0l0,-5.225l-0.962,0c-4.996,0 -8.674,-1.306 -11.035,-3.919c-2.36,-2.612 -3.54,-6.073 -3.54,-10.381c0,-1.1 0.08,-2.234 0.24,-3.403c0.161,-1.169 0.447,-2.257 0.86,-3.266l7.837,0.825c-0.321,1.1 -0.481,2.292 -0.481,3.575c0,1.742 0.412,3.106 1.237,4.091c0.825,0.985 2.292,1.478 4.4,1.478l1.444,0l0,-7.7l8.388,0l0,7.7l25.3,0l0,11Z" style="fill:#202a33;fill-rule:nonzero;"/><path d="M32.373,116.303c2.475,0 4.778,0.39 6.909,1.169c2.132,0.779 3.988,1.925 5.569,3.437c1.581,1.513 2.819,3.392 3.713,5.638c0.893,2.246 1.34,4.812 1.34,7.7c0,2.887 -0.447,5.454 -1.34,7.7c-0.894,2.246 -2.132,4.125 -3.713,5.637c-1.581,1.513 -3.437,2.659 -5.569,3.438c-2.131,0.779 -4.434,1.169 -6.909,1.169c-2.475,0 -4.778,-0.39 -6.909,-1.169c-2.132,-0.779 -3.988,-1.925 -5.569,-3.438c-1.581,-1.512 -2.819,-3.391 -3.713,-5.637c-0.893,-2.246 -1.34,-4.813 -1.34,-7.7c0,-2.888 0.447,-5.454 1.34,-7.7c0.894,-2.246 2.132,-4.125 3.713,-5.638c1.581,-1.512 3.437,-2.658 5.569,-3.437c2.131,-0.779 4.434,-1.169 6.909,-1.169Zm0,11c-1.192,0 -2.349,0.115 -3.472,0.344c-1.123,0.229 -2.131,0.607 -3.025,1.134c-0.894,0.527 -1.604,1.238 -2.131,2.132c-0.527,0.893 -0.791,2.005 -0.791,3.334c0,1.329 0.264,2.441 0.791,3.334c0.527,0.894 1.237,1.604 2.131,2.132c0.894,0.527 1.902,0.905 3.025,1.134c1.123,0.229 2.28,0.344 3.472,0.344c1.192,0 2.349,-0.115 3.472,-0.344c1.123,-0.229 2.131,-0.607 3.025,-1.134c0.894,-0.528 1.604,-1.238 2.131,-2.132c0.527,-0.893 0.791,-2.005 0.791,-3.334c0,-1.329 -0.264,-2.441 -0.791,-3.334c-0.527,-0.894 -1.237,-1.605 -2.131,-2.132c-0.894,-0.527 -1.902,-0.905 -3.025,-1.134c-1.123,-0.229 -2.28,-0.344 -3.472,-0.344Z" style="fill:#202a33;fill-rule:nonzero;"/><path d="M49.217,110.391l-33.688,0l0,-10.588l4.4,0c-1.833,-1.054 -3.139,-2.418 -3.919,-4.09c-0.779,-1.673 -1.168,-3.449 -1.168,-5.329c0,-2.245 0.469,-4.148 1.409,-5.706c0.94,-1.558 2.189,-2.83 3.747,-3.815c1.558,-0.986 3.357,-1.696 5.397,-2.132c2.039,-0.435 4.182,-0.653 6.428,-0.653l17.394,0l0,11l-17.6,0c-2.796,0 -4.847,0.436 -6.153,1.306c-1.307,0.871 -1.96,2.2 -1.96,3.988c0,1.146 0.252,2.143 0.756,2.991c0.505,0.847 1.123,1.523 1.857,2.028l23.1,0l0,11Z" style="fill:#202a33;fill-rule:nonzero;"/><path d="M32.373,36.759c2.475,0 4.778,0.39 6.909,1.169c2.132,0.779 3.988,1.925 5.569,3.438c1.581,1.512 2.819,3.391 3.713,5.637c0.893,2.246 1.34,4.813 1.34,7.7c0,2.888 -0.447,5.454 -1.34,7.7c-0.894,2.246 -2.132,4.125 -3.713,5.638c-1.581,1.512 -3.437,2.658 -5.569,3.437c-2.131,0.779 -4.434,1.169 -6.909,1.169c-2.475,0 -4.778,-0.39 -6.909,-1.169c-2.132,-0.779 -3.988,-1.925 -5.569,-3.437c-1.581,-1.513 -2.819,-3.392 -3.713,-5.638c-0.893,-2.246 -1.34,-4.812 -1.34,-7.7c0,-2.887 0.447,-5.454 1.34,-7.7c0.894,-2.246 2.132,-4.125 3.713,-5.637c1.581,-1.513 3.437,-2.659 5.569,-3.438c2.131,-0.779 4.434,-1.169 6.909,-1.169Zm0,11c-1.192,0 -2.349,0.115 -3.472,0.344c-1.123,0.229 -2.131,0.607 -3.025,1.135c-0.894,0.527 -1.604,1.237 -2.131,2.131c-0.527,0.894 -0.791,2.005 -0.791,3.334c0,1.329 0.264,2.441 0.791,3.334c0.527,0.894 1.237,1.605 2.131,2.132c0.894,0.527 1.902,0.905 3.025,1.134c1.123,0.229 2.28,0.344 3.472,0.344c1.192,0 2.349,-0.115 3.472,-0.344c1.123,-0.229 2.131,-0.607 3.025,-1.134c0.894,-0.527 1.604,-1.238 2.131,-2.132c0.527,-0.893 0.791,-2.005 0.791,-3.334c0,-1.329 -0.264,-2.44 -0.791,-3.334c-0.527,-0.894 -1.237,-1.604 -2.131,-2.131c-0.894,-0.528 -1.902,-0.906 -3.025,-1.135c-1.123,-0.229 -2.28,-0.344 -3.472,-0.344Z" style="fill:#202a33;fill-rule:nonzero;"/><path d="M49.217,23.353l-33.688,11.688l0,-11.069l23.65,-6.463l-23.65,-6.462l0,-11.069l33.688,11.688l0,11.687Z" style="fill:#202a33;fill-rule:nonzero;"/><g><path d="M66.708,0.022l100,0l0,50l-50,0l0,150l50,0l0,50l-100,0l0,-250" style="fill:#b62020;"/><path d="M416.708,0.022l-100,0l0,50l50,0l0,150l-50,0l0,50l100,0l0,-250" style="fill:#b62020;"/></g></g></svg>